<svg xmlns="http://www.w3.org/2000/svg" xmlns:xlink="http://www.w3.org/1999/xlink" width="500" zoomAndPan="magnify" viewBox="0 0 375 374.999991" height="500" preserveAspectRatio="xMidYMid meet" version="1.0"><defs><g/></defs><path fill="#b4bf35" d="M 371.066406 187.421875 C 371.066406 190.433594 370.996094 193.449219 370.847656 196.460938 C 370.699219 199.46875 370.476562 202.476562 370.183594 205.476562 C 369.886719 208.476562 369.519531 211.46875 369.078125 214.449219 C 368.636719 217.429688 368.121094 220.402344 367.535156 223.355469 C 366.945312 226.3125 366.285156 229.253906 365.554688 232.179688 C 364.824219 235.101562 364.019531 238.007812 363.148438 240.894531 C 362.273438 243.777344 361.328125 246.640625 360.316406 249.476562 C 359.300781 252.316406 358.21875 255.128906 357.066406 257.914062 C 355.914062 260.699219 354.691406 263.453125 353.40625 266.179688 C 352.117188 268.90625 350.765625 271.597656 349.347656 274.253906 C 347.925781 276.914062 346.445312 279.535156 344.894531 282.121094 C 343.347656 284.707031 341.738281 287.253906 340.066406 289.761719 C 338.394531 292.265625 336.660156 294.730469 334.867188 297.152344 C 333.074219 299.574219 331.222656 301.949219 329.3125 304.28125 C 327.402344 306.609375 325.4375 308.894531 323.414062 311.125 C 321.390625 313.359375 319.316406 315.542969 317.1875 317.675781 C 315.058594 319.804688 312.878906 321.882812 310.648438 323.910156 C 308.417969 325.933594 306.140625 327.902344 303.8125 329.816406 C 301.484375 331.726562 299.113281 333.582031 296.695312 335.378906 C 294.277344 337.171875 291.816406 338.910156 289.3125 340.582031 C 286.808594 342.257812 284.265625 343.871094 281.683594 345.421875 C 279.101562 346.96875 276.480469 348.457031 273.828125 349.875 C 271.171875 351.296875 268.484375 352.652344 265.761719 353.941406 C 263.039062 355.230469 260.289062 356.453125 257.507812 357.605469 C 254.726562 358.757812 251.917969 359.84375 249.082031 360.859375 C 246.25 361.875 243.390625 362.820312 240.511719 363.695312 C 237.628906 364.570312 234.730469 365.375 231.808594 366.105469 C 228.886719 366.839844 225.953125 367.5 223 368.089844 C 220.046875 368.675781 217.082031 369.191406 214.101562 369.632812 C 211.125 370.078125 208.136719 370.445312 205.140625 370.742188 C 202.144531 371.035156 199.144531 371.257812 196.136719 371.40625 C 193.128906 371.554688 190.121094 371.628906 187.109375 371.628906 C 184.101562 371.628906 181.089844 371.554688 178.082031 371.40625 C 175.078125 371.257812 172.074219 371.035156 169.078125 370.742188 C 166.082031 370.445312 163.097656 370.078125 160.117188 369.632812 C 157.140625 369.191406 154.175781 368.675781 151.222656 368.089844 C 148.269531 367.5 145.332031 366.839844 142.410156 366.105469 C 139.492188 365.375 136.589844 364.570312 133.710938 363.695312 C 130.828125 362.820312 127.972656 361.875 125.136719 360.859375 C 122.300781 359.84375 119.492188 358.757812 116.710938 357.605469 C 113.929688 356.453125 111.179688 355.230469 108.457031 353.941406 C 105.738281 352.652344 103.046875 351.296875 100.394531 349.875 C 97.738281 348.457031 95.121094 346.96875 92.535156 345.421875 C 89.953125 343.871094 87.410156 342.257812 84.910156 340.582031 C 82.40625 338.910156 79.945312 337.171875 77.527344 335.378906 C 75.109375 333.582031 72.734375 331.726562 70.410156 329.816406 C 68.082031 327.902344 65.800781 325.933594 63.570312 323.910156 C 61.339844 321.882812 59.160156 319.804688 57.03125 317.675781 C 54.902344 315.542969 52.828125 313.359375 50.804688 311.125 C 48.785156 308.894531 46.820312 306.609375 44.910156 304.28125 C 43 301.949219 41.148438 299.574219 39.355469 297.152344 C 37.558594 294.730469 35.828125 292.265625 34.15625 289.761719 C 32.480469 287.253906 30.871094 284.707031 29.324219 282.121094 C 27.777344 279.535156 26.292969 276.914062 24.875 274.253906 C 23.453125 271.597656 22.101562 268.90625 20.8125 266.179688 C 19.527344 263.453125 18.308594 260.699219 17.15625 257.914062 C 16.003906 255.128906 14.921875 252.316406 13.90625 249.476562 C 12.890625 246.640625 11.949219 243.777344 11.074219 240.894531 C 10.199219 238.007812 9.398438 235.101562 8.664062 232.179688 C 7.933594 229.253906 7.273438 226.3125 6.6875 223.355469 C 6.101562 220.402344 5.585938 217.429688 5.144531 214.449219 C 4.703125 211.46875 4.332031 208.476562 4.039062 205.476562 C 3.742188 202.476562 3.523438 199.46875 3.375 196.460938 C 3.226562 193.449219 3.152344 190.433594 3.152344 187.421875 C 3.152344 184.40625 3.226562 181.394531 3.375 178.382812 C 3.523438 175.371094 3.742188 172.363281 4.039062 169.363281 C 4.332031 166.363281 4.703125 163.375 5.144531 160.390625 C 5.585938 157.410156 6.101562 154.441406 6.6875 151.484375 C 7.273438 148.527344 7.933594 145.585938 8.664062 142.660156 C 9.398438 139.738281 10.199219 136.832031 11.074219 133.949219 C 11.949219 131.0625 12.890625 128.203125 13.90625 125.363281 C 14.921875 122.523438 16.003906 119.710938 17.15625 116.925781 C 18.308594 114.140625 19.527344 111.386719 20.8125 108.660156 C 22.101562 105.9375 23.453125 103.246094 24.875 100.585938 C 26.292969 97.925781 27.777344 95.304688 29.324219 92.71875 C 30.871094 90.132812 32.480469 87.585938 34.15625 85.082031 C 35.828125 82.574219 37.558594 80.109375 39.355469 77.6875 C 41.148438 75.265625 43 72.890625 44.910156 70.558594 C 46.820312 68.230469 48.785156 65.949219 50.804688 63.714844 C 52.828125 61.480469 54.902344 59.296875 57.03125 57.167969 C 59.160156 55.035156 61.339844 52.957031 63.570312 50.933594 C 65.800781 48.90625 68.082031 46.9375 70.410156 45.027344 C 72.734375 43.113281 75.109375 41.257812 77.527344 39.464844 C 79.945312 37.667969 82.40625 35.933594 84.910156 34.257812 C 87.410156 32.582031 89.953125 30.96875 92.535156 29.421875 C 95.121094 27.871094 97.738281 26.386719 100.394531 24.964844 C 103.046875 23.542969 105.738281 22.1875 108.457031 20.898438 C 111.179688 19.609375 113.929688 18.386719 116.710938 17.234375 C 119.492188 16.082031 122.300781 14.996094 125.136719 13.980469 C 127.972656 12.964844 130.828125 12.019531 133.710938 11.144531 C 136.589844 10.269531 139.492188 9.464844 142.410156 8.734375 C 145.332031 8 148.269531 7.339844 151.222656 6.753906 C 154.175781 6.164062 157.140625 5.648438 160.117188 5.207031 C 163.097656 4.765625 166.082031 4.394531 169.078125 4.101562 C 172.074219 3.804688 175.078125 3.582031 178.082031 3.433594 C 181.089844 3.285156 184.101562 3.214844 187.109375 3.214844 C 190.121094 3.214844 193.128906 3.285156 196.136719 3.433594 C 199.144531 3.582031 202.144531 3.804688 205.140625 4.101562 C 208.136719 4.394531 211.125 4.765625 214.101562 5.207031 C 217.082031 5.648438 220.046875 6.164062 223 6.753906 C 225.953125 7.339844 228.886719 8 231.808594 8.734375 C 234.730469 9.464844 237.628906 10.269531 240.511719 11.144531 C 243.390625 12.019531 246.25 12.964844 249.082031 13.980469 C 251.917969 14.996094 254.726562 16.082031 257.507812 17.234375 C 260.289062 18.386719 263.039062 19.609375 265.761719 20.898438 C 268.484375 22.1875 271.171875 23.542969 273.828125 24.964844 C 276.480469 26.386719 279.101562 27.871094 281.683594 29.421875 C 284.265625 30.96875 286.808594 32.582031 289.3125 34.257812 C 291.816406 35.933594 294.277344 37.667969 296.695312 39.464844 C 299.113281 41.257812 301.484375 43.113281 303.8125 45.027344 C 306.140625 46.9375 308.417969 48.90625 310.648438 50.933594 C 312.878906 52.957031 315.058594 55.035156 317.1875 57.167969 C 319.316406 59.296875 321.390625 61.480469 323.414062 63.714844 C 325.4375 65.949219 327.402344 68.230469 329.3125 70.558594 C 331.222656 72.890625 333.074219 75.265625 334.867188 77.6875 C 336.660156 80.109375 338.394531 82.574219 340.066406 85.082031 C 341.738281 87.585938 343.347656 90.132812 344.894531 92.71875 C 346.445312 95.304688 347.925781 97.925781 349.347656 100.585938 C 350.765625 103.246094 352.117188 105.9375 353.40625 108.660156 C 354.691406 111.386719 355.914062 114.140625 357.066406 116.925781 C 358.21875 119.710938 359.300781 122.523438 360.316406 125.363281 C 361.328125 128.203125 362.273438 131.0625 363.148438 133.949219 C 364.019531 136.832031 364.824219 139.738281 365.554688 142.660156 C 366.285156 145.585938 366.945312 148.527344 367.535156 151.484375 C 368.121094 154.441406 368.636719 157.410156 369.078125 160.390625 C 369.519531 163.375 369.886719 166.363281 370.183594 169.363281 C 370.476562 172.363281 370.699219 175.371094 370.847656 178.382812 C 370.996094 181.394531 371.066406 184.40625 371.066406 187.421875 Z M 371.066406 187.421875 " fill-opacity="1" fill-rule="nonzero"/><path fill="#ffffff" d="M 159.121094 180.621094 L 136.671875 147.539062 L 135.945312 197.1875 L 111.199219 197.394531 L 111.042969 106.347656 L 136.671875 106.257812 L 159.714844 141.007812 L 181.824219 106.847656 L 207.636719 106.769531 L 208.222656 160.480469 L 257.210938 122.335938 L 258.894531 124.609375 L 183.265625 190.550781 L 182.035156 147.414062 Z M 159.121094 180.621094 " fill-opacity="1" fill-rule="evenodd"/><path stroke-linecap="round" transform="matrix(0.680859, 0, 0, 0.680859, -30.549813, -8.880768)" fill-opacity="1" fill="#8d3533" fill-rule="evenodd" stroke-linejoin="round" d="M 352.614838 289.652829 L 374.932686 289.320069 L 374.932686 257.880016 L 245.603913 369.429095 " stroke="#8d3533" stroke-width="1" stroke-opacity="1" stroke-miterlimit="1.5"/><g fill="#8d3533" fill-opacity="1"><g transform="translate(106.092692, 297.652452)"><g><path d="M 22.03125 0 L 22.03125 -14.921875 C 22.03125 -15.253906 22.03125 -15.585938 22.03125 -15.921875 C 22.039062 -16.265625 22.097656 -17.71875 22.203125 -20.28125 C 21.398438 -17.144531 20.804688 -14.960938 20.421875 -13.734375 L 16.140625 0 L 12.609375 0 L 8.328125 -13.734375 L 6.515625 -20.28125 C 6.648438 -17.582031 6.71875 -15.796875 6.71875 -14.921875 L 6.71875 0 L 2.3125 0 L 2.3125 -24.609375 L 8.96875 -24.609375 L 13.21875 -10.84375 L 13.578125 -9.515625 L 14.390625 -6.21875 L 15.453125 -10.171875 L 19.8125 -24.609375 L 26.4375 -24.609375 L 26.4375 0 Z M 22.03125 0 "/></g></g></g><g fill="#8d3533" fill-opacity="1"><g transform="translate(134.83759, 297.652452)"><g><path d="M 19.09375 0 L 16.984375 -6.296875 L 7.9375 -6.296875 L 5.828125 0 L 0.859375 0 L 9.515625 -24.609375 L 15.390625 -24.609375 L 24.015625 0 Z M 12.453125 -20.828125 L 12.359375 -20.4375 C 12.242188 -20.019531 12.109375 -19.539062 11.953125 -19 C 11.796875 -18.46875 10.828125 -15.523438 9.046875 -10.171875 L 15.875 -10.171875 L 13.53125 -17.25 L 12.8125 -19.625 Z M 12.453125 -20.828125 "/></g></g></g><g fill="#8d3533" fill-opacity="1"><g transform="translate(159.757703, 297.652452)"><g><path d="M 18.625 0 L 13.109375 -9.34375 L 7.28125 -9.34375 L 7.28125 0 L 2.3125 0 L 2.3125 -24.609375 L 14.171875 -24.609375 C 17.003906 -24.609375 19.1875 -23.976562 20.71875 -22.71875 C 22.257812 -21.457031 23.03125 -19.644531 23.03125 -17.28125 C 23.03125 -15.550781 22.554688 -14.0625 21.609375 -12.8125 C 20.671875 -11.5625 19.398438 -10.738281 17.796875 -10.34375 L 24.21875 0 Z M 18.03125 -17.0625 C 18.03125 -19.425781 16.570312 -20.609375 13.65625 -20.609375 L 7.28125 -20.609375 L 7.28125 -13.34375 L 13.78125 -13.34375 C 15.175781 -13.34375 16.234375 -13.671875 16.953125 -14.328125 C 17.671875 -14.984375 18.03125 -15.894531 18.03125 -17.0625 Z M 18.03125 -17.0625 "/></g></g></g><g fill="#8d3533" fill-opacity="1"><g transform="translate(184.677816, 297.652452)"><g><path d="M 17.625 0 L 17.625 -10.546875 L 7.28125 -10.546875 L 7.28125 0 L 2.3125 0 L 2.3125 -24.609375 L 7.28125 -24.609375 L 7.28125 -14.8125 L 17.625 -14.8125 L 17.625 -24.609375 L 22.59375 -24.609375 L 22.59375 0 Z M 17.625 0 "/></g></g></g><g fill="#8d3533" fill-opacity="1"><g transform="translate(209.59793, 297.652452)"><g><path d="M 19.09375 0 L 16.984375 -6.296875 L 7.9375 -6.296875 L 5.828125 0 L 0.859375 0 L 9.515625 -24.609375 L 15.390625 -24.609375 L 24.015625 0 Z M 12.453125 -20.828125 L 12.359375 -20.4375 C 12.242188 -20.019531 12.109375 -19.539062 11.953125 -19 C 11.796875 -18.46875 10.828125 -15.523438 9.046875 -10.171875 L 15.875 -10.171875 L 13.53125 -17.25 L 12.8125 -19.625 Z M 12.453125 -20.828125 "/></g></g></g><g fill="#8d3533" fill-opacity="1"><g transform="translate(234.518043, 297.652452)"><g><path d="M 23.359375 -7.03125 C 23.359375 -4.789062 22.546875 -3.054688 20.921875 -1.828125 C 19.304688 -0.609375 17.0625 0 14.1875 0 L 2.3125 0 L 2.3125 -24.609375 L 13.171875 -24.609375 C 16.078125 -24.609375 18.273438 -24.085938 19.765625 -23.046875 C 21.253906 -22.003906 22 -20.46875 22 -18.4375 C 22 -17.03125 21.625 -15.847656 20.875 -14.890625 C 20.125 -13.929688 18.984375 -13.285156 17.453125 -12.953125 C 19.378906 -12.710938 20.84375 -12.082031 21.84375 -11.0625 C 22.851562 -10.050781 23.359375 -8.707031 23.359375 -7.03125 Z M 16.984375 -17.734375 C 16.984375 -18.835938 16.644531 -19.625 15.96875 -20.09375 C 15.289062 -20.5625 14.28125 -20.796875 12.9375 -20.796875 L 7.28125 -20.796875 L 7.28125 -14.6875 L 12.984375 -14.6875 C 14.378906 -14.6875 15.394531 -14.941406 16.03125 -15.453125 C 16.664062 -15.960938 16.984375 -16.722656 16.984375 -17.734375 Z M 18.375 -7.421875 C 18.375 -9.734375 16.773438 -10.890625 13.578125 -10.890625 L 7.28125 -10.890625 L 7.28125 -3.828125 L 13.765625 -3.828125 C 15.359375 -3.828125 16.523438 -4.125 17.265625 -4.71875 C 18.003906 -5.320312 18.375 -6.222656 18.375 -7.421875 Z M 18.375 -7.421875 "/></g></g></g><g fill="#8d3533" fill-opacity="1"><g transform="translate(259.438156, 297.652452)"><g><path d="M 19.09375 0 L 16.984375 -6.296875 L 7.9375 -6.296875 L 5.828125 0 L 0.859375 0 L 9.515625 -24.609375 L 15.390625 -24.609375 L 24.015625 0 Z M 12.453125 -20.828125 L 12.359375 -20.4375 C 12.242188 -20.019531 12.109375 -19.539062 11.953125 -19 C 11.796875 -18.46875 10.828125 -15.523438 9.046875 -10.171875 L 15.875 -10.171875 L 13.53125 -17.25 L 12.8125 -19.625 Z M 12.453125 -20.828125 "/></g></g></g><path fill="#8d3533" d="M 224.679688 166.699219 L 249.832031 166.699219 L 249.832031 257.011719 L 224.679688 257.011719 Z M 224.679688 166.699219 " fill-opacity="1" fill-rule="evenodd"/><path fill="#8d3533" d="M 224.726562 166.085938 L 277.0625 166.085938 L 277.0625 188.105469 L 224.726562 188.105469 Z M 224.726562 166.085938 " fill-opacity="1" fill-rule="evenodd"/><path stroke-linecap="round" transform="matrix(0.680859, 0, 0, 0.680859, -32.396983, -10.218656)" fill-opacity="1" fill="#ffffff" fill-rule="evenodd" stroke-linejoin="round" d="M 426.612993 195.811725 C 426.612993 195.811725 428.047302 201.170304 428.540704 203.000482 C 428.655449 203.436512 428.948048 203.803695 429.343917 204.015973 C 430.227452 204.497901 431.833878 205.06015 432.935427 203.602892 C 433.922232 202.294802 434.100086 193.10375 434.100086 193.10375 L 446.257289 183.511091 C 447.817817 190.998184 448.655454 197.527159 451.799459 203.602892 C 451.799459 203.602892 454.840194 203.063592 455.884371 202.564452 C 456.756431 202.151371 457.777659 201.089982 458.087469 200.154813 C 458.603821 198.611497 458.517762 195.880572 458.334171 193.10375 C 458.12763 189.982694 457.806345 186.79279 458.087469 185.180627 C 458.35712 183.66026 462.201068 183.304551 461.311796 181.847293 C 460.370889 180.321188 456.532678 177.613213 456.911336 174.8995 C 457.467848 170.906384 467.381792 160.958017 464.662342 157.888596 " stroke="#ffffff" stroke-width="1" stroke-opacity="1" stroke-miterlimit="1.5"/><path stroke-linecap="round" transform="matrix(0, -0.680859, -0.680859, 0, 391.793974, 413.971605)" fill-opacity="1" fill="#ffffff" fill-rule="evenodd" stroke-linejoin="round" d="M 426.613585 195.81334 C 426.613585 195.81334 428.047894 201.171918 428.541296 202.996359 C 428.656041 203.432389 428.94864 203.80531 429.344509 204.017587 C 430.228044 204.499515 431.83447 205.061764 432.936019 203.598769 C 433.922823 202.296417 434.100678 193.105365 434.100678 193.105365 L 446.257881 183.512706 C 447.818409 190.999799 448.656045 197.523036 451.800051 203.598769 C 451.800051 203.598769 454.840786 203.065206 455.884963 202.566067 C 456.757023 202.152986 457.778251 201.091597 458.088061 200.156428 C 458.604413 198.613111 458.512617 195.882187 458.334762 193.105365 C 458.128222 189.978571 457.806937 186.794405 458.088061 185.176504 C 458.357711 183.656137 462.20166 183.306165 461.306651 181.848908 C 460.371481 180.322803 456.527533 177.614827 456.911928 174.895378 C 457.46844 170.902261 467.382384 160.953894 464.662934 157.89021 " stroke="#ffffff" stroke-width="1" stroke-opacity="1" stroke-miterlimit="1.5"/><g fill="#ffffff" fill-opacity="1"><g transform="translate(108.03916, 317.657904)"><g><path d="M 7.4375 -12.4375 L 7.4375 0 L 5.484375 0 L 5.484375 -12.4375 L 0.46875 -12.4375 L 0.46875 -13.984375 L 12.453125 -13.984375 L 12.453125 -12.4375 Z M 7.4375 -12.4375 "/></g></g></g><g fill="#ffffff" fill-opacity="1"><g transform="translate(120.966973, 317.657904)"><g><path d="M 12.03125 0 L 8.25 -5.8125 L 3.71875 -5.8125 L 3.71875 0 L 1.734375 0 L 1.734375 -13.984375 L 8.59375 -13.984375 C 10.226562 -13.984375 11.492188 -13.628906 12.390625 -12.921875 C 13.285156 -12.222656 13.734375 -11.242188 13.734375 -9.984375 C 13.734375 -8.941406 13.414062 -8.066406 12.78125 -7.359375 C 12.15625 -6.648438 11.285156 -6.207031 10.171875 -6.03125 L 14.3125 0 Z M 11.75 -9.96875 C 11.75 -10.78125 11.457031 -11.398438 10.875 -11.828125 C 10.300781 -12.253906 9.472656 -12.46875 8.390625 -12.46875 L 3.71875 -12.46875 L 3.71875 -7.3125 L 8.484375 -7.3125 C 9.515625 -7.3125 10.316406 -7.539062 10.890625 -8 C 11.460938 -8.46875 11.75 -9.125 11.75 -9.96875 Z M 11.75 -9.96875 "/></g></g></g><g fill="#ffffff" fill-opacity="1"><g transform="translate(136.250935, 317.657904)"><g><path d="M 12.0625 0 L 10.40625 -4.09375 L 3.765625 -4.09375 L 2.09375 0 L 0.046875 0 L 5.984375 -13.984375 L 8.234375 -13.984375 L 14.078125 0 Z M 7.078125 -12.5625 L 6.984375 -12.28125 C 6.816406 -11.726562 6.5625 -11.023438 6.21875 -10.171875 L 4.359375 -5.5625 L 9.8125 -5.5625 L 7.9375 -10.1875 C 7.75 -10.644531 7.554688 -11.160156 7.359375 -11.734375 Z M 7.078125 -12.5625 "/></g></g></g><path stroke-linecap="butt" transform="matrix(0.764388, 0, 0, 0.734261, 5.109509, 49.125033)" fill="none" stroke-linejoin="round" d="M 144.391237 348.777688 L 144.391237 365.716497 L 141.820758 365.716497 L 141.820758 348.777688 L 135.279579 348.777688 L 135.279579 346.670977 L 150.932416 346.670977 L 150.932416 348.777688 Z M 167.305804 365.716497 L 162.359037 357.81101 L 156.420874 357.81101 L 156.420874 365.716497 L 153.840174 365.716497 L 153.840174 346.670977 L 162.803633 346.670977 C 164.949957 346.670977 166.605693 347.149775 167.770841 348.107371 C 168.941099 349.070287 169.523672 350.405601 169.523672 352.118634 C 169.523672 353.533748 169.109738 354.720103 168.286981 355.688339 C 167.464223 356.651255 166.324627 357.257732 164.873303 357.513091 L 170.279996 365.716497 Z M 166.927642 352.145234 C 166.927642 351.033359 166.54948 350.192802 165.798267 349.607605 C 165.047053 349.027727 163.96367 348.735128 162.548118 348.735128 L 156.420874 348.735128 L 156.420874 355.768139 L 162.655435 355.768139 C 164.014773 355.768139 165.067494 355.44894 165.813598 354.815863 C 166.55459 354.177465 166.927642 353.289029 166.927642 352.145234 Z M 187.343274 365.716497 L 185.166288 360.14648 L 176.483895 360.14648 L 174.296689 365.716497 L 171.618894 365.716497 L 179.391654 346.670977 L 182.324964 346.670977 L 189.980187 365.716497 Z M 180.827647 348.612769 L 180.705 348.995807 C 180.480147 349.740604 180.142867 350.70352 179.703382 351.873915 L 177.270881 358.135529 L 184.394634 358.135529 L 181.946802 351.847315 C 181.696397 351.224878 181.440883 350.522641 181.190478 349.735284 Z M 180.827647 348.612769 " stroke="#ffffff" stroke-width="0.908986" stroke-opacity="1" stroke-miterlimit="2"/><g fill="#ffffff" fill-opacity="1"><g transform="translate(148.802554, 317.657904)"><g><path d="M 8.078125 0 L 6.03125 0 L 0.09375 -13.984375 L 2.171875 -13.984375 L 6.203125 -4.140625 L 7.078125 -1.671875 L 7.9375 -4.140625 L 11.953125 -13.984375 L 14.03125 -13.984375 Z M 8.078125 0 "/></g></g></g><path stroke-linecap="butt" transform="matrix(0.764388, 0, 0, 0.734261, 5.109509, 49.125033)" fill="none" stroke-linejoin="round" d="M 198.555264 365.716497 L 195.882579 365.716497 L 188.104708 346.670977 L 190.823386 346.670977 L 196.097211 360.082641 L 197.231697 363.444866 L 198.366183 360.082641 L 203.614457 346.670977 L 206.333134 346.670977 Z M 198.555264 365.716497 " stroke="#ffffff" stroke-width="0.908986" stroke-opacity="1" stroke-miterlimit="2"/><g fill="#ffffff" fill-opacity="1"><g transform="translate(162.919848, 317.657904)"><g><path d="M 1.734375 0 L 1.734375 -13.984375 L 12.78125 -13.984375 L 12.78125 -12.4375 L 3.71875 -12.4375 L 3.71875 -7.953125 L 12.171875 -7.953125 L 12.171875 -6.421875 L 3.71875 -6.421875 L 3.71875 -1.546875 L 13.21875 -1.546875 L 13.21875 0 Z M 1.734375 0 "/></g></g></g><path stroke-linecap="butt" transform="matrix(0.764388, 0, 0, 0.734261, 5.109509, 49.125033)" fill="none" stroke-linejoin="round" d="M 208.724753 365.716497 L 208.724753 346.670977 L 223.17667 346.670977 L 223.17667 348.777688 L 211.305452 348.777688 L 211.305452 354.890342 L 222.369243 354.890342 L 222.369243 356.970454 L 211.305452 356.970454 L 211.305452 363.609786 L 223.733692 363.609786 L 223.733692 365.716497 Z M 208.724753 365.716497 " stroke="#ffffff" stroke-width="0.908986" stroke-opacity="1" stroke-miterlimit="2"/><g fill="#ffffff" fill-opacity="1"><g transform="translate(177.049083, 317.657904)"><g><path d="M 1.734375 0 L 1.734375 -13.984375 L 3.71875 -13.984375 L 3.71875 -1.546875 L 11.078125 -1.546875 L 11.078125 0 Z M 1.734375 0 "/></g></g></g><path stroke-linecap="butt" transform="matrix(0.764388, 0, 0, 0.734261, 5.109509, 49.125033)" fill="none" stroke-linejoin="round" d="M 227.208693 365.716497 L 227.208693 346.670977 L 229.789393 346.670977 L 229.789393 363.609786 L 239.41719 363.609786 L 239.41719 365.716497 Z M 227.208693 365.716497 " stroke="#ffffff" stroke-width="0.908986" stroke-opacity="1" stroke-miterlimit="2"/><g fill="#ffffff" fill-opacity="1"><g transform="translate(188.037164, 317.657904)"><g/></g></g><g fill="#ffffff" fill-opacity="1"><g transform="translate(192.742928, 317.657904)"><g><path d="M 12.0625 0 L 10.40625 -4.09375 L 3.765625 -4.09375 L 2.09375 0 L 0.046875 0 L 5.984375 -13.984375 L 8.234375 -13.984375 L 14.078125 0 Z M 7.078125 -12.5625 L 6.984375 -12.28125 C 6.816406 -11.726562 6.5625 -11.023438 6.21875 -10.171875 L 4.359375 -5.5625 L 9.8125 -5.5625 L 7.9375 -10.1875 C 7.75 -10.644531 7.554688 -11.160156 7.359375 -11.734375 Z M 7.078125 -12.5625 "/></g></g></g><path stroke-linecap="butt" transform="matrix(0.764388, 0, 0, 0.734261, 5.109509, 49.125033)" fill="none" stroke-linejoin="round" d="M 261.248375 365.716497 L 259.071388 360.14648 L 250.388996 360.14648 L 248.201789 365.716497 L 245.523994 365.716497 L 253.296754 346.670977 L 256.230064 346.670977 L 263.885287 365.716497 Z M 254.732747 348.612769 L 254.6101 348.995807 C 254.385247 349.740604 254.047968 350.70352 253.608482 351.873915 L 251.175981 358.135529 L 258.299734 358.135529 L 255.851902 351.847315 C 255.601498 351.224878 255.345983 350.522641 255.095578 349.735284 Z M 254.732747 348.612769 " stroke="#ffffff" stroke-width="0.908986" stroke-opacity="1" stroke-miterlimit="2"/><g fill="#ffffff" fill-opacity="1"><g transform="translate(206.860223, 317.657904)"><g><path d="M 1.0625 -7.0625 C 1.0625 -9.332031 1.695312 -11.085938 2.96875 -12.328125 C 4.238281 -13.566406 6.019531 -14.1875 8.3125 -14.1875 C 9.925781 -14.1875 11.234375 -13.925781 12.234375 -13.40625 C 13.242188 -12.882812 14.019531 -12.050781 14.5625 -10.90625 L 12.6875 -10.359375 C 12.269531 -11.148438 11.695312 -11.726562 10.96875 -12.09375 C 10.25 -12.457031 9.347656 -12.640625 8.265625 -12.640625 C 6.578125 -12.640625 5.289062 -12.148438 4.40625 -11.171875 C 3.519531 -10.203125 3.078125 -8.832031 3.078125 -7.0625 C 3.078125 -5.289062 3.546875 -3.894531 4.484375 -2.875 C 5.429688 -1.851562 6.738281 -1.34375 8.40625 -1.34375 C 9.351562 -1.34375 10.238281 -1.476562 11.0625 -1.75 C 11.882812 -2.03125 12.550781 -2.410156 13.0625 -2.890625 L 13.0625 -5.40625 L 8.71875 -5.40625 L 8.71875 -7 L 14.890625 -7 L 14.890625 -2.171875 C 14.117188 -1.421875 13.171875 -0.835938 12.046875 -0.421875 C 10.929688 -0.00390625 9.71875 0.203125 8.40625 0.203125 C 6.882812 0.203125 5.570312 -0.0859375 4.46875 -0.671875 C 3.363281 -1.253906 2.519531 -2.09375 1.9375 -3.1875 C 1.351562 -4.28125 1.0625 -5.570312 1.0625 -7.0625 Z M 1.0625 -7.0625 "/></g></g></g><path stroke-linecap="butt" transform="matrix(0.764388, 0, 0, 0.734261, 5.109509, 49.125033)" fill="none" stroke-linejoin="round" d="M 265.331501 356.103297 C 265.331501 353.01239 266.159369 350.6184 267.820215 348.926647 C 269.475951 347.229575 271.806246 346.383698 274.80599 346.383698 C 276.916542 346.383698 278.628491 346.740137 279.946947 347.453014 C 281.260294 348.165891 282.277242 349.304366 282.987574 350.873759 L 280.529521 351.602596 C 279.98783 350.522641 279.241727 349.735284 278.291212 349.235206 C 277.340697 348.740448 276.155108 348.495729 274.739556 348.495729 C 272.542129 348.495729 270.860841 349.160726 269.695694 350.485401 C 268.535657 351.815395 267.953083 353.688027 267.953083 356.103297 C 267.953083 358.513247 268.571429 360.412479 269.80301 361.806313 C 271.039702 363.194827 272.74654 363.891744 274.928637 363.891744 C 276.175549 363.891744 277.335586 363.705545 278.408748 363.327827 C 279.487021 362.944788 280.360881 362.434071 281.02522 361.785033 L 281.02522 358.348328 L 275.337461 358.348328 L 275.337461 356.188417 L 283.406618 356.188417 L 283.406618 362.758589 C 282.39989 363.785345 281.158088 364.583342 279.696543 365.141939 C 278.229888 365.705857 276.640586 365.987816 274.928637 365.987816 C 272.935621 365.987816 271.218562 365.594137 269.777458 364.801461 C 268.336355 364.008784 267.232531 362.864989 266.471097 361.370075 C 265.709663 359.880481 265.331501 358.124889 265.331501 356.103297 Z M 265.331501 356.103297 " stroke="#ffffff" stroke-width="0.908986" stroke-opacity="1" stroke-miterlimit="2"/><g fill="#ffffff" fill-opacity="1"><g transform="translate(223.330404, 317.657904)"><g><path d="M 1.734375 0 L 1.734375 -13.984375 L 12.78125 -13.984375 L 12.78125 -12.4375 L 3.71875 -12.4375 L 3.71875 -7.953125 L 12.171875 -7.953125 L 12.171875 -6.421875 L 3.71875 -6.421875 L 3.71875 -1.546875 L 13.21875 -1.546875 L 13.21875 0 Z M 1.734375 0 "/></g></g></g><g fill="#ffffff" fill-opacity="1"><g transform="translate(237.446626, 317.657904)"><g><path d="M 11.1875 0 L 3.390625 -11.90625 L 3.4375 -10.953125 L 3.5 -9.296875 L 3.5 0 L 1.734375 0 L 1.734375 -13.984375 L 4.03125 -13.984375 L 11.90625 -2 C 11.820312 -3.289062 11.78125 -4.226562 11.78125 -4.8125 L 11.78125 -13.984375 L 13.5625 -13.984375 L 13.5625 0 Z M 11.1875 0 "/></g></g></g><g fill="#ffffff" fill-opacity="1"><g transform="translate(252.730588, 317.657904)"><g><path d="M 8.1875 -12.640625 C 6.570312 -12.640625 5.316406 -12.140625 4.421875 -11.140625 C 3.523438 -10.148438 3.078125 -8.789062 3.078125 -7.0625 C 3.078125 -5.34375 3.539062 -3.960938 4.46875 -2.921875 C 5.40625 -1.878906 6.671875 -1.359375 8.265625 -1.359375 C 10.304688 -1.359375 11.84375 -2.328125 12.875 -4.265625 L 14.484375 -3.5 C 13.878906 -2.289062 13.035156 -1.367188 11.953125 -0.734375 C 10.867188 -0.109375 9.609375 0.203125 8.171875 0.203125 C 6.703125 0.203125 5.429688 -0.0859375 4.359375 -0.671875 C 3.296875 -1.265625 2.484375 -2.101562 1.921875 -3.1875 C 1.359375 -4.28125 1.078125 -5.570312 1.078125 -7.0625 C 1.078125 -9.289062 1.703125 -11.035156 2.953125 -12.296875 C 4.210938 -13.554688 5.953125 -14.1875 8.171875 -14.1875 C 9.722656 -14.1875 11.015625 -13.894531 12.046875 -13.3125 C 13.085938 -12.738281 13.851562 -11.878906 14.34375 -10.734375 L 12.484375 -10.140625 C 12.140625 -10.953125 11.59375 -11.570312 10.84375 -12 C 10.101562 -12.425781 9.21875 -12.640625 8.1875 -12.640625 Z M 8.1875 -12.640625 "/></g></g></g><g fill="#ffffff" fill-opacity="1"><g transform="translate(268.01455, 317.657904)"><g><path d="M 8.03125 -5.796875 L 8.03125 0 L 6.0625 0 L 6.0625 -5.796875 L 0.46875 -13.984375 L 2.640625 -13.984375 L 7.078125 -7.328125 L 11.484375 -13.984375 L 13.65625 -13.984375 Z M 8.03125 -5.796875 "/></g></g></g><path stroke-linecap="butt" transform="matrix(0.764388, 0, 0, 0.734261, 5.109509, 49.125033)" fill="none" stroke-linejoin="round" d="M 287.75548 365.716497 L 287.75548 346.670977 L 302.207397 346.670977 L 302.207397 348.777688 L 290.336179 348.777688 L 290.336179 354.890342 L 301.39997 354.890342 L 301.39997 356.970454 L 290.336179 356.970454 L 290.336179 363.609786 L 302.764419 363.609786 L 302.764419 365.716497 Z M 318.580785 365.716497 L 308.385744 349.495885 L 308.452178 350.8046 L 308.523722 353.06559 L 308.523722 365.716497 L 306.224089 365.716497 L 306.224089 346.670977 L 309.223833 346.670977 L 319.52619 363.003308 C 319.418873 361.237076 319.36266 359.954961 319.36266 359.162284 L 319.36266 346.670977 L 321.692955 346.670977 L 321.692955 365.716497 Z M 334.652666 348.495729 C 332.547224 348.495729 330.906819 349.171366 329.731451 350.527961 C 328.561193 351.884555 327.973509 353.746547 327.973509 356.103297 C 327.973509 358.438767 328.586744 360.31672 329.808105 361.737154 C 331.029466 363.157588 332.680091 363.865145 334.765092 363.865145 C 337.432667 363.865145 339.435903 362.54579 340.779911 359.907081 L 342.890463 360.960437 C 342.103477 362.59899 341.004764 363.849185 339.584101 364.705701 C 338.163439 365.562217 336.517924 365.987816 334.642445 365.987816 C 332.720974 365.987816 331.060128 365.588817 329.659907 364.790821 C 328.259685 363.992824 327.191634 362.854349 326.455751 361.370075 C 325.719868 359.891121 325.351927 358.135529 325.351927 356.103297 C 325.351927 353.06559 326.174685 350.68756 327.81509 348.969207 C 329.455495 347.245535 331.724466 346.383698 334.627114 346.383698 C 336.655902 346.383698 338.35252 346.782696 339.711859 347.575373 C 341.071197 348.36805 342.072815 349.543765 342.711602 351.102518 L 340.263771 351.916475 C 339.824285 350.8046 339.113954 349.958723 338.137888 349.373526 C 337.156711 348.788328 335.996674 348.495729 334.652666 348.495729 Z M 354.444842 357.82165 L 354.444842 365.716497 L 351.879473 365.716497 L 351.879473 357.82165 L 344.551309 346.670977 L 347.387523 346.670977 L 353.187709 355.741539 L 358.962344 346.670977 L 361.803668 346.670977 Z M 354.444842 357.82165 " stroke="#ffffff" stroke-width="0.908986" stroke-opacity="1" stroke-miterlimit="2"/></svg>